<svg width="44" height="43" viewBox="0 0 44 43" fill="none" xmlns="http://www.w3.org/2000/svg">
<g id="material-symbols-light:order-approve-outline-sharp">
<path id="Vector" d="M31.847 35.5235L37.0537 30.514L35.906 29.3906L31.847 33.3018L30.0943 31.5549L28.9448 32.6872L31.847 35.5235ZM12.4118 15.6413H31.5922V13.8497H12.41L12.4118 15.6413ZM33.0002 39.6228C30.9578 39.6228 29.2247 38.9276 27.8008 37.5373C26.3769 36.147 25.6656 34.4532 25.6668 32.4561C25.6681 30.459 26.3794 28.7659 27.8008 27.3767C29.2223 25.9876 30.9554 25.2918 33.0002 25.2895C35.0449 25.2871 36.7781 25.9828 38.1995 27.3767C39.6209 28.7707 40.3323 30.4638 40.3335 32.4561C40.3347 34.4485 39.6234 36.1422 38.1995 37.5373C36.7756 38.9324 35.0425 39.6276 33.0002 39.6228ZM7.3335 37.213V7.16675H36.6668V20.7117C36.3686 20.6042 36.0722 20.5123 35.7777 20.4358C35.4843 20.3594 35.1696 20.2997 34.8335 20.2567V8.95841H9.16683V34.1313H20.7975C20.8806 34.6211 20.9882 35.1 21.1202 35.5682C21.2522 36.0365 21.4373 36.4832 21.6757 36.9084L21.6115 36.9711L19.5325 35.4894L17.0648 37.2112L14.5972 35.4894L12.1277 37.2112L9.66 35.4894L7.3335 37.213ZM12.4118 29.1505H21.045C21.1134 28.822 21.1978 28.5145 21.298 28.2278C21.3982 27.9411 21.5162 27.6515 21.6518 27.3588H12.4118V29.1505ZM12.4118 22.3977H25.8135C26.4124 21.9355 27.0541 21.5502 27.7385 21.2421C28.4229 20.9327 29.1544 20.7207 29.933 20.606H12.41L12.4118 22.3977Z" fill="#DEB526"/>
</g>
</svg>
